<mxfile host="65bd71144e" pages="2">
    <diagram id="qDs4zsgHsnW7HbFaQxwj" name="spendWhereV2 Class Diagram">
        <mxGraphModel dx="1387" dy="430" grid="1" gridSize="10" guides="1" tooltips="1" connect="1" arrows="1" fold="1" page="1" pageScale="1" pageWidth="850" pageHeight="1100" math="0" shadow="0">
            <root>
                <mxCell id="0"/>
                <mxCell id="1" parent="0"/>
                <mxCell id="nMCcHLCuzdzfKpNBrMgA-15" style="edgeStyle=orthogonalEdgeStyle;rounded=0;orthogonalLoop=1;jettySize=auto;html=1;entryX=0;entryY=0.5;entryDx=0;entryDy=0;startArrow=diamond;startFill=1;exitX=0.5;exitY=0;exitDx=0;exitDy=0;startSize=23;" parent="1" source="01GERiBBcl2VuDs_CRFM-1" target="nMCcHLCuzdzfKpNBrMgA-12" edge="1">
                    <mxGeometry relative="1" as="geometry"/>
                </mxCell>
                <mxCell id="01GERiBBcl2VuDs_CRFM-1" value="User" style="swimlane;fontStyle=1;align=center;verticalAlign=top;childLayout=stackLayout;horizontal=1;startSize=26;horizontalStack=0;resizeParent=1;resizeParentMax=0;resizeLast=0;collapsible=1;marginBottom=0;" parent="1" vertex="1">
                    <mxGeometry y="244" width="160" height="216" as="geometry">
                        <mxRectangle y="244" width="70" height="30" as="alternateBounds"/>
                    </mxGeometry>
                </mxCell>
                <object label="+ firstName: String&#10;&#10;" lastName="" id="01GERiBBcl2VuDs_CRFM-2">
                    <mxCell style="text;strokeColor=none;fillColor=none;align=left;verticalAlign=top;spacingLeft=4;spacingRight=4;overflow=hidden;rotatable=0;points=[[0,0.5],[1,0.5]];portConstraint=eastwest;" parent="01GERiBBcl2VuDs_CRFM-1" vertex="1">
                        <mxGeometry y="26" width="160" height="26" as="geometry"/>
                    </mxCell>
                </object>
                <object label="+ lastName: String&#10;&#10;" lastName="" id="kb8kkpJwAN3aDOIr81UP-8">
                    <mxCell style="text;strokeColor=none;fillColor=none;align=left;verticalAlign=top;spacingLeft=4;spacingRight=4;overflow=hidden;rotatable=0;points=[[0,0.5],[1,0.5]];portConstraint=eastwest;" parent="01GERiBBcl2VuDs_CRFM-1" vertex="1">
                        <mxGeometry y="52" width="160" height="26" as="geometry"/>
                    </mxCell>
                </object>
                <object label="+ password: String&#10;&#10;" lastName="" id="kb8kkpJwAN3aDOIr81UP-9">
                    <mxCell style="text;strokeColor=none;fillColor=none;align=left;verticalAlign=top;spacingLeft=4;spacingRight=4;overflow=hidden;rotatable=0;points=[[0,0.5],[1,0.5]];portConstraint=eastwest;" parent="01GERiBBcl2VuDs_CRFM-1" vertex="1">
                        <mxGeometry y="78" width="160" height="26" as="geometry"/>
                    </mxCell>
                </object>
                <object label="+ contactNum: String&#10;&#10;" lastName="" id="kb8kkpJwAN3aDOIr81UP-10">
                    <mxCell style="text;strokeColor=none;fillColor=none;align=left;verticalAlign=top;spacingLeft=4;spacingRight=4;overflow=hidden;rotatable=0;points=[[0,0.5],[1,0.5]];portConstraint=eastwest;" parent="01GERiBBcl2VuDs_CRFM-1" vertex="1">
                        <mxGeometry y="104" width="160" height="26" as="geometry"/>
                    </mxCell>
                </object>
                <object label="+ userCreatedAt: Date&#10;&#10;" lastName="" id="kb8kkpJwAN3aDOIr81UP-11">
                    <mxCell style="text;strokeColor=none;fillColor=none;align=left;verticalAlign=top;spacingLeft=4;spacingRight=4;overflow=hidden;rotatable=0;points=[[0,0.5],[1,0.5]];portConstraint=eastwest;" parent="01GERiBBcl2VuDs_CRFM-1" vertex="1">
                        <mxGeometry y="130" width="160" height="26" as="geometry"/>
                    </mxCell>
                </object>
                <object label="+userAdress: Address(mongoose.Schema.Types.ObjectId)&#10;" lastName="" id="kb8kkpJwAN3aDOIr81UP-12">
                    <mxCell style="text;strokeColor=none;fillColor=none;align=left;verticalAlign=top;spacingLeft=4;spacingRight=4;overflow=hidden;rotatable=0;points=[[0,0.5],[1,0.5]];portConstraint=eastwest;" parent="01GERiBBcl2VuDs_CRFM-1" vertex="1">
                        <mxGeometry y="156" width="160" height="26" as="geometry"/>
                    </mxCell>
                </object>
                <mxCell id="01GERiBBcl2VuDs_CRFM-3" value="" style="line;strokeWidth=1;fillColor=none;align=left;verticalAlign=middle;spacingTop=-1;spacingLeft=3;spacingRight=3;rotatable=0;labelPosition=right;points=[];portConstraint=eastwest;strokeColor=inherit;" parent="01GERiBBcl2VuDs_CRFM-1" vertex="1">
                    <mxGeometry y="182" width="160" height="8" as="geometry"/>
                </mxCell>
                <mxCell id="01GERiBBcl2VuDs_CRFM-4" value="+ method(type): type" style="text;strokeColor=none;fillColor=none;align=left;verticalAlign=top;spacingLeft=4;spacingRight=4;overflow=hidden;rotatable=0;points=[[0,0.5],[1,0.5]];portConstraint=eastwest;" parent="01GERiBBcl2VuDs_CRFM-1" vertex="1">
                    <mxGeometry y="190" width="160" height="26" as="geometry"/>
                </mxCell>
                <mxCell id="ootzpRhRLvkWmLbnQWPY-32" style="edgeStyle=orthogonalEdgeStyle;rounded=0;orthogonalLoop=1;jettySize=auto;html=1;entryX=0.5;entryY=0;entryDx=0;entryDy=0;startArrow=diamond;startFill=0;startSize=23;" parent="1" source="ootzpRhRLvkWmLbnQWPY-1" target="ootzpRhRLvkWmLbnQWPY-9" edge="1">
                    <mxGeometry relative="1" as="geometry"/>
                </mxCell>
                <mxCell id="ootzpRhRLvkWmLbnQWPY-1" value="SpendingIterm" style="swimlane;fontStyle=1;align=center;verticalAlign=top;childLayout=stackLayout;horizontal=1;startSize=26;horizontalStack=0;resizeParent=1;resizeParentMax=0;resizeLast=0;collapsible=1;marginBottom=0;" parent="1" vertex="1" collapsed="1">
                    <mxGeometry x="490" y="310" width="120" height="30" as="geometry">
                        <mxRectangle x="490" y="310" width="160" height="86" as="alternateBounds"/>
                    </mxGeometry>
                </mxCell>
                <mxCell id="ootzpRhRLvkWmLbnQWPY-2" value="+ field: type" style="text;strokeColor=none;fillColor=none;align=left;verticalAlign=top;spacingLeft=4;spacingRight=4;overflow=hidden;rotatable=0;points=[[0,0.5],[1,0.5]];portConstraint=eastwest;" parent="ootzpRhRLvkWmLbnQWPY-1" vertex="1">
                    <mxGeometry y="26" width="160" height="26" as="geometry"/>
                </mxCell>
                <mxCell id="ootzpRhRLvkWmLbnQWPY-3" value="" style="line;strokeWidth=1;fillColor=none;align=left;verticalAlign=middle;spacingTop=-1;spacingLeft=3;spacingRight=3;rotatable=0;labelPosition=right;points=[];portConstraint=eastwest;strokeColor=inherit;" parent="ootzpRhRLvkWmLbnQWPY-1" vertex="1">
                    <mxGeometry y="52" width="160" height="8" as="geometry"/>
                </mxCell>
                <mxCell id="ootzpRhRLvkWmLbnQWPY-4" value="+ method(type): type" style="text;strokeColor=none;fillColor=none;align=left;verticalAlign=top;spacingLeft=4;spacingRight=4;overflow=hidden;rotatable=0;points=[[0,0.5],[1,0.5]];portConstraint=eastwest;" parent="ootzpRhRLvkWmLbnQWPY-1" vertex="1">
                    <mxGeometry y="60" width="160" height="26" as="geometry"/>
                </mxCell>
                <mxCell id="ootzpRhRLvkWmLbnQWPY-30" style="edgeStyle=orthogonalEdgeStyle;rounded=0;orthogonalLoop=1;jettySize=auto;html=1;entryX=0.5;entryY=1;entryDx=0;entryDy=0;endArrow=diamond;endFill=1;startArrow=classic;startFill=1;endSize=21;" parent="1" source="ootzpRhRLvkWmLbnQWPY-5" target="01GERiBBcl2VuDs_CRFM-1" edge="1">
                    <mxGeometry relative="1" as="geometry"/>
                </mxCell>
                <mxCell id="ootzpRhRLvkWmLbnQWPY-5" value="Address" style="swimlane;fontStyle=1;align=center;verticalAlign=top;childLayout=stackLayout;horizontal=1;startSize=26;horizontalStack=0;resizeParent=1;resizeParentMax=0;resizeLast=0;collapsible=1;marginBottom=0;" parent="1" vertex="1">
                    <mxGeometry y="630" width="160" height="86" as="geometry">
                        <mxRectangle x="35" y="630" width="90" height="30" as="alternateBounds"/>
                    </mxGeometry>
                </mxCell>
                <mxCell id="ootzpRhRLvkWmLbnQWPY-6" value="+ field: type" style="text;strokeColor=none;fillColor=none;align=left;verticalAlign=top;spacingLeft=4;spacingRight=4;overflow=hidden;rotatable=0;points=[[0,0.5],[1,0.5]];portConstraint=eastwest;" parent="ootzpRhRLvkWmLbnQWPY-5" vertex="1">
                    <mxGeometry y="26" width="160" height="26" as="geometry"/>
                </mxCell>
                <mxCell id="ootzpRhRLvkWmLbnQWPY-7" value="" style="line;strokeWidth=1;fillColor=none;align=left;verticalAlign=middle;spacingTop=-1;spacingLeft=3;spacingRight=3;rotatable=0;labelPosition=right;points=[];portConstraint=eastwest;strokeColor=inherit;" parent="ootzpRhRLvkWmLbnQWPY-5" vertex="1">
                    <mxGeometry y="52" width="160" height="8" as="geometry"/>
                </mxCell>
                <mxCell id="ootzpRhRLvkWmLbnQWPY-8" value="+ method(type): type" style="text;strokeColor=none;fillColor=none;align=left;verticalAlign=top;spacingLeft=4;spacingRight=4;overflow=hidden;rotatable=0;points=[[0,0.5],[1,0.5]];portConstraint=eastwest;" parent="ootzpRhRLvkWmLbnQWPY-5" vertex="1">
                    <mxGeometry y="60" width="160" height="26" as="geometry"/>
                </mxCell>
                <mxCell id="ootzpRhRLvkWmLbnQWPY-9" value="Category" style="swimlane;fontStyle=1;align=center;verticalAlign=top;childLayout=stackLayout;horizontal=1;startSize=26;horizontalStack=0;resizeParent=1;resizeParentMax=0;resizeLast=0;collapsible=1;marginBottom=0;" parent="1" vertex="1">
                    <mxGeometry x="470" y="520" width="160" height="86" as="geometry">
                        <mxRectangle x="505" y="510" width="90" height="30" as="alternateBounds"/>
                    </mxGeometry>
                </mxCell>
                <mxCell id="ootzpRhRLvkWmLbnQWPY-10" value="+ field: type" style="text;strokeColor=none;fillColor=none;align=left;verticalAlign=top;spacingLeft=4;spacingRight=4;overflow=hidden;rotatable=0;points=[[0,0.5],[1,0.5]];portConstraint=eastwest;" parent="ootzpRhRLvkWmLbnQWPY-9" vertex="1">
                    <mxGeometry y="26" width="160" height="26" as="geometry"/>
                </mxCell>
                <mxCell id="ootzpRhRLvkWmLbnQWPY-11" value="" style="line;strokeWidth=1;fillColor=none;align=left;verticalAlign=middle;spacingTop=-1;spacingLeft=3;spacingRight=3;rotatable=0;labelPosition=right;points=[];portConstraint=eastwest;strokeColor=inherit;" parent="ootzpRhRLvkWmLbnQWPY-9" vertex="1">
                    <mxGeometry y="52" width="160" height="8" as="geometry"/>
                </mxCell>
                <mxCell id="ootzpRhRLvkWmLbnQWPY-12" value="+ method(type): type" style="text;strokeColor=none;fillColor=none;align=left;verticalAlign=top;spacingLeft=4;spacingRight=4;overflow=hidden;rotatable=0;points=[[0,0.5],[1,0.5]];portConstraint=eastwest;" parent="ootzpRhRLvkWmLbnQWPY-9" vertex="1">
                    <mxGeometry y="60" width="160" height="26" as="geometry"/>
                </mxCell>
                <mxCell id="ootzpRhRLvkWmLbnQWPY-13" style="edgeStyle=orthogonalEdgeStyle;rounded=0;orthogonalLoop=1;jettySize=auto;html=1;startArrow=diamond;startFill=1;sourcePerimeterSpacing=0;targetPerimeterSpacing=0;strokeWidth=1;startSize=23;exitX=1;exitY=0.5;exitDx=0;exitDy=0;" parent="1" source="01GERiBBcl2VuDs_CRFM-2" target="ootzpRhRLvkWmLbnQWPY-2" edge="1">
                    <mxGeometry relative="1" as="geometry">
                        <mxPoint x="270" y="230" as="sourcePoint"/>
                    </mxGeometry>
                </mxCell>
                <mxCell id="ootzpRhRLvkWmLbnQWPY-18" value="0....*" style="text;html=1;strokeColor=none;fillColor=none;align=center;verticalAlign=middle;whiteSpace=wrap;rounded=0;" parent="1" vertex="1">
                    <mxGeometry x="450" y="340" width="60" height="30" as="geometry"/>
                </mxCell>
                <mxCell id="ootzpRhRLvkWmLbnQWPY-31" value="1...1" style="text;html=1;strokeColor=none;fillColor=none;align=center;verticalAlign=middle;whiteSpace=wrap;rounded=0;" parent="1" vertex="1">
                    <mxGeometry x="100" y="530" width="60" height="30" as="geometry"/>
                </mxCell>
                <mxCell id="nMCcHLCuzdzfKpNBrMgA-11" value="Overview" style="swimlane;fontStyle=1;align=center;verticalAlign=top;childLayout=stackLayout;horizontal=1;startSize=26;horizontalStack=0;resizeParent=1;resizeParentMax=0;resizeLast=0;collapsible=1;marginBottom=0;" parent="1" vertex="1">
                    <mxGeometry x="220" y="90" width="160" height="86" as="geometry">
                        <mxRectangle x="220" y="90" width="70" height="30" as="alternateBounds"/>
                    </mxGeometry>
                </mxCell>
                <mxCell id="nMCcHLCuzdzfKpNBrMgA-12" value="+ field: type" style="text;strokeColor=none;fillColor=none;align=left;verticalAlign=top;spacingLeft=4;spacingRight=4;overflow=hidden;rotatable=0;points=[[0,0.5],[1,0.5]];portConstraint=eastwest;" parent="nMCcHLCuzdzfKpNBrMgA-11" vertex="1">
                    <mxGeometry y="26" width="160" height="26" as="geometry"/>
                </mxCell>
                <mxCell id="nMCcHLCuzdzfKpNBrMgA-13" value="" style="line;strokeWidth=1;fillColor=none;align=left;verticalAlign=middle;spacingTop=-1;spacingLeft=3;spacingRight=3;rotatable=0;labelPosition=right;points=[];portConstraint=eastwest;strokeColor=inherit;" parent="nMCcHLCuzdzfKpNBrMgA-11" vertex="1">
                    <mxGeometry y="52" width="160" height="8" as="geometry"/>
                </mxCell>
                <mxCell id="nMCcHLCuzdzfKpNBrMgA-14" value="+ method(type): type" style="text;strokeColor=none;fillColor=none;align=left;verticalAlign=top;spacingLeft=4;spacingRight=4;overflow=hidden;rotatable=0;points=[[0,0.5],[1,0.5]];portConstraint=eastwest;" parent="nMCcHLCuzdzfKpNBrMgA-11" vertex="1">
                    <mxGeometry y="60" width="160" height="26" as="geometry"/>
                </mxCell>
            </root>
        </mxGraphModel>
    </diagram>
    <diagram id="NrD8xkDJZYaa0XfTvpq_" name="Archiecture View">
        <mxGraphModel dx="1387" dy="430" grid="1" gridSize="10" guides="1" tooltips="1" connect="1" arrows="1" fold="1" page="1" pageScale="1" pageWidth="850" pageHeight="1100" math="0" shadow="0">
            <root>
                <mxCell id="0"/>
                <mxCell id="1" parent="0"/>
                <mxCell id="5PgVQ-ImqTS7lXB6E8Hz-6" style="edgeStyle=orthogonalEdgeStyle;rounded=0;orthogonalLoop=1;jettySize=auto;html=1;exitX=0;exitY=0;exitDx=0;exitDy=82.5;exitPerimeter=0;entryX=1;entryY=0.75;entryDx=0;entryDy=0;" parent="1" source="5PgVQ-ImqTS7lXB6E8Hz-1" target="5PgVQ-ImqTS7lXB6E8Hz-2" edge="1">
                    <mxGeometry relative="1" as="geometry"/>
                </mxCell>
                <mxCell id="5PgVQ-ImqTS7lXB6E8Hz-1" value="MongoDB" style="shape=cylinder3;whiteSpace=wrap;html=1;boundedLbl=1;backgroundOutline=1;size=15;" parent="1" vertex="1">
                    <mxGeometry x="610" y="420" width="150" height="120" as="geometry"/>
                </mxCell>
                <mxCell id="5PgVQ-ImqTS7lXB6E8Hz-4" style="edgeStyle=orthogonalEdgeStyle;rounded=0;orthogonalLoop=1;jettySize=auto;html=1;exitX=1;exitY=0.25;exitDx=0;exitDy=0;entryX=0;entryY=0;entryDx=0;entryDy=37.5;entryPerimeter=0;" parent="1" source="5PgVQ-ImqTS7lXB6E8Hz-2" target="5PgVQ-ImqTS7lXB6E8Hz-1" edge="1">
                    <mxGeometry relative="1" as="geometry">
                        <Array as="points">
                            <mxPoint x="370" y="458"/>
                            <mxPoint x="490" y="458"/>
                        </Array>
                    </mxGeometry>
                </mxCell>
                <mxCell id="5PgVQ-ImqTS7lXB6E8Hz-8" style="edgeStyle=orthogonalEdgeStyle;rounded=0;orthogonalLoop=1;jettySize=auto;html=1;exitX=0.25;exitY=0;exitDx=0;exitDy=0;entryX=0.25;entryY=1;entryDx=0;entryDy=0;" parent="1" source="5PgVQ-ImqTS7lXB6E8Hz-2" target="5PgVQ-ImqTS7lXB6E8Hz-7" edge="1">
                    <mxGeometry relative="1" as="geometry"/>
                </mxCell>
                <mxCell id="5PgVQ-ImqTS7lXB6E8Hz-2" value="Data Access Layer" style="rounded=0;whiteSpace=wrap;html=1;" parent="1" vertex="1">
                    <mxGeometry x="160" y="420" width="200" height="110" as="geometry"/>
                </mxCell>
                <mxCell id="5PgVQ-ImqTS7lXB6E8Hz-9" style="edgeStyle=orthogonalEdgeStyle;rounded=0;orthogonalLoop=1;jettySize=auto;html=1;exitX=0.75;exitY=1;exitDx=0;exitDy=0;entryX=0.75;entryY=0;entryDx=0;entryDy=0;" parent="1" source="5PgVQ-ImqTS7lXB6E8Hz-7" target="5PgVQ-ImqTS7lXB6E8Hz-2" edge="1">
                    <mxGeometry relative="1" as="geometry"/>
                </mxCell>
                <mxCell id="5PgVQ-ImqTS7lXB6E8Hz-11" style="edgeStyle=orthogonalEdgeStyle;rounded=0;orthogonalLoop=1;jettySize=auto;html=1;exitX=0.25;exitY=0;exitDx=0;exitDy=0;entryX=0.25;entryY=1;entryDx=0;entryDy=0;" parent="1" source="5PgVQ-ImqTS7lXB6E8Hz-7" target="5PgVQ-ImqTS7lXB6E8Hz-10" edge="1">
                    <mxGeometry relative="1" as="geometry"/>
                </mxCell>
                <mxCell id="5PgVQ-ImqTS7lXB6E8Hz-7" value="Service Layer" style="rounded=0;whiteSpace=wrap;html=1;" parent="1" vertex="1">
                    <mxGeometry x="160" y="250" width="200" height="100" as="geometry"/>
                </mxCell>
                <mxCell id="5PgVQ-ImqTS7lXB6E8Hz-12" style="edgeStyle=orthogonalEdgeStyle;rounded=0;orthogonalLoop=1;jettySize=auto;html=1;exitX=0.75;exitY=1;exitDx=0;exitDy=0;entryX=0.75;entryY=0;entryDx=0;entryDy=0;" parent="1" source="5PgVQ-ImqTS7lXB6E8Hz-10" target="5PgVQ-ImqTS7lXB6E8Hz-7" edge="1">
                    <mxGeometry relative="1" as="geometry"/>
                </mxCell>
                <mxCell id="5PgVQ-ImqTS7lXB6E8Hz-10" value="API layer" style="rounded=0;whiteSpace=wrap;html=1;" parent="1" vertex="1">
                    <mxGeometry x="160" y="70" width="200" height="100" as="geometry"/>
                </mxCell>
                <mxCell id="5PgVQ-ImqTS7lXB6E8Hz-13" value="Client" style="shape=umlActor;verticalLabelPosition=bottom;verticalAlign=top;html=1;outlineConnect=0;" parent="1" vertex="1">
                    <mxGeometry x="650" y="60" width="70" height="120" as="geometry"/>
                </mxCell>
                <mxCell id="5PgVQ-ImqTS7lXB6E8Hz-17" value="" style="endArrow=classic;html=1;rounded=0;" parent="1" edge="1">
                    <mxGeometry width="50" height="50" relative="1" as="geometry">
                        <mxPoint x="425" y="110" as="sourcePoint"/>
                        <mxPoint x="610" y="110" as="targetPoint"/>
                        <Array as="points">
                            <mxPoint x="475" y="110"/>
                        </Array>
                    </mxGeometry>
                </mxCell>
                <mxCell id="5PgVQ-ImqTS7lXB6E8Hz-18" value="" style="endArrow=none;html=1;rounded=0;startArrow=classic;startFill=1;endFill=0;" parent="1" edge="1">
                    <mxGeometry width="50" height="50" relative="1" as="geometry">
                        <mxPoint x="425" y="150" as="sourcePoint"/>
                        <mxPoint x="610" y="150" as="targetPoint"/>
                        <Array as="points">
                            <mxPoint x="475" y="150"/>
                        </Array>
                    </mxGeometry>
                </mxCell>
                <mxCell id="A2wsgDhPSdyK6vwjElyX-2" style="edgeStyle=orthogonalEdgeStyle;rounded=0;orthogonalLoop=1;jettySize=auto;html=1;entryX=1;entryY=0.4;entryDx=0;entryDy=0;entryPerimeter=0;fillColor=#f8cecc;strokeColor=#b85450;" parent="1" source="A2wsgDhPSdyK6vwjElyX-1" target="5PgVQ-ImqTS7lXB6E8Hz-7" edge="1">
                    <mxGeometry relative="1" as="geometry"/>
                </mxCell>
                <mxCell id="A2wsgDhPSdyK6vwjElyX-9" style="edgeStyle=orthogonalEdgeStyle;rounded=0;orthogonalLoop=1;jettySize=auto;html=1;exitX=0.25;exitY=1;exitDx=0;exitDy=0;fillColor=#f8cecc;strokeColor=#b85450;" parent="1" source="A2wsgDhPSdyK6vwjElyX-1" edge="1">
                    <mxGeometry relative="1" as="geometry">
                        <mxPoint x="660" y="410" as="targetPoint"/>
                    </mxGeometry>
                </mxCell>
                <mxCell id="A2wsgDhPSdyK6vwjElyX-1" value="3rd Party API" style="rounded=1;whiteSpace=wrap;html=1;fillColor=#f8cecc;strokeColor=#b85450;" parent="1" vertex="1">
                    <mxGeometry x="630" y="260" width="120" height="60" as="geometry"/>
                </mxCell>
                <mxCell id="A2wsgDhPSdyK6vwjElyX-5" style="edgeStyle=orthogonalEdgeStyle;rounded=0;orthogonalLoop=1;jettySize=auto;html=1;entryX=0.75;entryY=1;entryDx=0;entryDy=0;fillColor=#f8cecc;strokeColor=#b85450;" parent="1" target="A2wsgDhPSdyK6vwjElyX-1" edge="1">
                    <mxGeometry relative="1" as="geometry">
                        <mxPoint x="720" y="410" as="sourcePoint"/>
                        <Array as="points">
                            <mxPoint x="720" y="330"/>
                            <mxPoint x="720" y="330"/>
                        </Array>
                    </mxGeometry>
                </mxCell>
                <mxCell id="A2wsgDhPSdyK6vwjElyX-12" value="CRUD OPERATION" style="strokeWidth=1;shadow=0;dashed=0;align=center;html=1;shape=mxgraph.mockup.text.stickyNote2;fontColor=#666666;mainText=;fontSize=17;whiteSpace=wrap;fillColor=#ffffcc;strokeColor=#F62E00;" parent="1" vertex="1">
                    <mxGeometry x="30" y="70" width="110" height="120" as="geometry"/>
                </mxCell>
                <mxCell id="A2wsgDhPSdyK6vwjElyX-13" value="Data Labeling Python" style="strokeWidth=1;shadow=0;dashed=0;align=center;html=1;shape=mxgraph.mockup.text.stickyNote2;fontColor=#666666;mainText=;fontSize=17;whiteSpace=wrap;fillColor=#ffffcc;strokeColor=#F62E00;" parent="1" vertex="1">
                    <mxGeometry x="770" y="250" width="110" height="120" as="geometry"/>
                </mxCell>
                <mxCell id="ePlLXDUxiNUc0NPwqair-2" value="Red color indicates not confirmed yet" style="text;html=1;strokeColor=none;fillColor=none;align=center;verticalAlign=middle;whiteSpace=wrap;rounded=0;" parent="1" vertex="1">
                    <mxGeometry x="950" y="40" width="60" height="30" as="geometry"/>
                </mxCell>
            </root>
        </mxGraphModel>
    </diagram>
</mxfile>